<svg xmlns="http://www.w3.org/2000/svg" xmlns:xlink="http://www.w3.org/1999/xlink" width="24" height="24" viewBox="0 0 24 24">
    <defs>
        <path id="spbs27o77a" d="M0 0H24V24H0z"/>
    </defs>
    <g fill="none" fill-rule="evenodd">
        <g>
            <g transform="translate(-316 -366) translate(316 366)">
                <mask id="dsfv9hdqjb" fill="#fff">
                    <use xlink:href="#spbs27o77a"/>
                </mask>
                <path fill="#FF6C85" d="M12 2C6.48 2 2 6.48 2 12s4.48 10 10 10 10-4.48 10-10S17.52 2 12 2c-3.68 0-3.68 0 0 0zm0 18c-4.41 0-8-3.59-8-8s3.59-8 8-8 8 3.59 8 8-3.59 8-8 8c-2.94 0-2.94 0 0 0zm-2-5.83l6.59-6.59L18 9l-8 8-4-4 1.41-1.41L10 14.17z" mask="url(#dsfv9hdqjb)"/>
            </g>
        </g>
    </g>
</svg>
