<svg xmlns="http://www.w3.org/2000/svg" width="80" height="80" viewBox="0 0 80 80">
    <g fill="none" fill-rule="evenodd">
        <g>
            <g>
                <g transform="translate(-140 -339) translate(20 243)">
                    <rect width="319" height="371" x=".5" y=".5" fill="#FFF" stroke="#E0E0E0" rx="10"/>
                    <rect width="280" height="232" x="20" y="20" fill="#FCFCFC" rx="3"/>
                </g>
                <g fill="#BDBDBD" fill-rule="nonzero">
                    <path d="M59.603 20.415c-.323-.442-.8-.731-1.341-.815l-17.43-2.692V2.051C40.831.92 39.911 0 38.78 0H2.05C.92 0 0 .92 0 2.05v36.755c0 1.131.92 2.051 2.05 2.051H15.74l-1.726 11.176c-.17 1.106.608 2.17 1.714 2.34l36.3 5.606c1.08.167 2.171-.625 2.34-1.714l.938-6.079c.173-1.123-1.564-1.391-1.737-.268-.119.766-.665 6.415-1.273 6.324l-36.3-5.607c-.174-.043-.255-.155-.245-.334l1.768-11.444h1.966l-1.43 9.257c-.073.48.256.929.735 1.003l31.3 4.834c.442.068.933-.285 1.003-.735l4.842-31.356c.074-.48-.255-.929-.735-1.003l-14.368-2.219v-1.95l17.163 2.65c.173.044.255.156.244.335l-3.986 25.813c-.169 1.092 1.56 1.41 1.737.268l3.987-25.813c.083-.541-.05-1.083-.373-1.525zM1.758 38.805V2.051c0-.162.131-.293.293-.293h36.73c.161 0 .293.131.293.293v36.754c0 .162-.132.293-.293.293H2.05c-.162 0-.293-.131-.293-.293zM54.062 24.46l-4.574 29.62-29.562-4.566 1.337-8.657h17.518c1.13 0 2.05-.92 2.05-2.05v-16.39l13.231 2.043z" transform="translate(-140 -339) translate(20 243) translate(130 106)"/>
                    <path d="M36.251 3.685H4.581c-.486 0-.88.394-.88.88v4.393c0 1.136 1.758 1.136 1.758 0V5.443h29.913v29.97H5.459v-21.78c0-1.137-1.758-1.137-1.758 0v22.66c0 .485.394.878.88.878h31.67c.485 0 .879-.393.879-.879V4.564c0-.485-.394-.879-.879-.879z" transform="translate(-140 -339) translate(20 243) translate(130 106)"/>
                    <path d="M20.415 29.172c.115 0 .23-.023.338-.068.098-.04 2.442-1.025 4.826-2.886 3.249-2.536 4.988-5.492 5.03-8.548.042-3.197-2.393-6.31-5.743-6.31-1.753 0-3.377.872-4.45 2.315-1.074-1.443-2.698-2.316-4.451-2.316-3.167 0-5.743 2.826-5.743 6.299 0 7.358 9.46 11.285 9.863 11.449.106.043.218.065.33.065zM11.98 17.658c0-2.504 1.788-4.54 3.985-4.54 1.562 0 2.989 1.05 3.633 2.676.288.725 1.347.725 1.634 0 .645-1.626 2.071-2.677 3.634-2.677 2.378 0 4.015 2.295 3.985 4.53-.074 5.44-6.845 8.936-8.44 9.684-1.606-.736-8.43-4.186-8.43-9.673z" transform="translate(-140 -339) translate(20 243) translate(130 106)"/>
                </g>
            </g>
        </g>
    </g>
</svg>
